<?xml version="1.0" encoding="UTF-8" standalone="no"?>
<!-- Created with Inkscape (http://www.inkscape.org/) -->

<svg
   xmlns:dc="http://purl.org/dc/elements/1.1/"
   xmlns:cc="http://creativecommons.org/ns#"
   xmlns:rdf="http://www.w3.org/1999/02/22-rdf-syntax-ns#"
   xmlns:svg="http://www.w3.org/2000/svg"
   xmlns="http://www.w3.org/2000/svg"
   xmlns:sodipodi="http://sodipodi.sourceforge.net/DTD/sodipodi-0.dtd"
   xmlns:inkscape="http://www.inkscape.org/namespaces/inkscape"
   width="71.979301"
   height="41.651821"
   id="svg2"
   version="1.1"
   inkscape:version="0.48.5 r10040"
   sodipodi:docname="filmstrip.svg">
  <defs
     id="defs4" />
  <sodipodi:namedview
     id="base"
     pagecolor="#ffffff"
     bordercolor="#666666"
     borderopacity="1.0"
     inkscape:pageopacity="0.0"
     inkscape:pageshadow="2"
     inkscape:zoom="14.455785"
     inkscape:cx="26.673331"
     inkscape:cy="21.129267"
     inkscape:document-units="px"
     inkscape:current-layer="layer1"
     showgrid="false"
     inkscape:window-width="1918"
     inkscape:window-height="1059"
     inkscape:window-x="0"
     inkscape:window-y="19"
     inkscape:window-maximized="1"
     fit-margin-top="0"
     fit-margin-left="0"
     fit-margin-right="0"
     fit-margin-bottom="0"
     inkscape:showpageshadow="false"
     showborder="false" />
  <metadata
     id="metadata7">
    <rdf:RDF>
      <cc:Work
         rdf:about="">
        <dc:format>image/svg+xml</dc:format>
        <dc:type
           rdf:resource="http://purl.org/dc/dcmitype/StillImage" />
        <dc:title />
      </cc:Work>
    </rdf:RDF>
  </metadata>
  <g
     inkscape:label="Layer 1"
     inkscape:groupmode="layer"
     id="layer1"
     transform="translate(-31.322848,-969.54908)">
    <path
       style="fill:#000000;fill-rule:evenodd;stroke:none"
       d="m 31.322848,1011.2009 71.979302,0 0,-41.65182 -71.979302,0 0,41.65182 z m 3.682409,-2.156 0,-0.8799 c 0,-0.3037 0.464238,-0.5414 1.033977,-0.5414 l 3.700549,0 c 0.56974,0 1.033977,0.2377 1.033977,0.5414 l 0,0.8799 c 0,0.3036 -0.464237,0.5511 -1.033977,0.5511 l -3.700549,0 c -0.569739,0 -1.033977,-0.2475 -1.033977,-0.5511 z m 0,-5.2114 0,-0.8701 c 0,-0.3037 0.464238,-0.5511 1.033977,-0.5511 l 3.700549,0 c 0.56974,0 1.033977,0.2474 1.033977,0.5511 l 0,0.8701 c 0,0.3037 -0.464237,0.5512 -1.033977,0.5512 l -3.700549,0 c -0.569739,0 -1.033977,-0.2475 -1.033977,-0.5512 z m 0,-5.20161 0,-0.87985 c 0,-0.30364 0.464238,-0.55109 1.033977,-0.55109 l 3.700549,0 c 0.56974,0 1.033977,0.24745 1.033977,0.55109 l 0,0.87985 c 0,0.30367 -0.464237,0.54143 -1.033977,0.54143 l -3.700549,0 c -0.569739,0 -1.033977,-0.23776 -1.033977,-0.54143 z m 0,-5.21133 0,-0.87982 c 0,-0.30367 0.464238,-0.5511 1.033977,-0.5511 l 3.700549,0 c 0.56974,0 1.033977,0.24743 1.033977,0.5511 l 0,0.87982 c 0,0.30367 -0.464237,0.54143 -1.033977,0.54143 l -3.700549,0 c -0.569739,0 -1.033977,-0.23776 -1.033977,-0.54143 z m 0,-5.2113 0,-0.87983 c 0,-0.30367 0.464238,-0.54144 1.033977,-0.54144 l 3.700549,0 c 0.56974,0 1.033977,0.23777 1.033977,0.54144 l 0,0.87983 c 0,0.30367 -0.464237,0.5511 -1.033977,0.5511 l -3.700549,0 c -0.569739,0 -1.033977,-0.24743 -1.033977,-0.5511 z m 0,-5.21132 0,-0.87983 c 0,-0.30367 0.464238,-0.54143 1.033977,-0.54143 l 3.700549,0 c 0.56974,0 1.033977,0.23776 1.033977,0.54143 l 0,0.87983 c 0,0.30367 -0.464237,0.55111 -1.033977,0.55111 l -3.700549,0 c -0.569739,0 -1.033977,-0.24744 -1.033977,-0.55111 z m 0,-5.21131 0,-0.87016 c 0,-0.30367 0.464238,-0.55111 1.033977,-0.55111 l 3.700549,0 c 0.56974,0 1.033977,0.24744 1.033977,0.55111 l 0,0.87016 c 0,0.30367 -0.464237,0.5511 -1.033977,0.5511 l -3.700549,0 c -0.569739,0 -1.033977,-0.24743 -1.033977,-0.5511 z m 0,-5.20165 0,-0.87983 c 0,-0.30367 0.464238,-0.5511 1.033977,-0.5511 l 3.700549,0 c 0.56974,0 1.033977,0.24743 1.033977,0.5511 l 0,0.87983 c 0,0.30367 -0.464237,0.54144 -1.033977,0.54144 l -3.700549,0 c -0.569739,0 -1.033977,-0.23777 -1.033977,-0.54144 z m 7.618777,37.52342 0,-39.46678 49.358792,0 0,39.46678 -49.358792,0 z m 51.626256,-0.8895 0,-0.8799 c 0,-0.3036 0.446155,-0.551 1.015837,-0.551 l 3.700549,0 c 0.569739,0 1.034004,0.2474 1.034004,0.551 l 0,0.8799 c 0,0.3036 -0.464265,0.5414 -1.034004,0.5414 l -3.700549,0 c -0.569682,0 -1.015837,-0.2378 -1.015837,-0.5414 z m 0,-5.2113 0,-0.8799 c 0,-0.3036 0.446155,-0.5511 1.015837,-0.5511 l 3.700549,0 c 0.569797,0 1.034004,0.2475 1.034004,0.5511 l 0,0.8799 c 0,0.3036 -0.464207,0.5414 -1.034004,0.5414 l -3.700549,0 c -0.569624,0 -1.015837,-0.2378 -1.015837,-0.5414 z m 0,-5.21133 0,-0.87985 c 0,-0.30367 0.446155,-0.55109 1.015837,-0.55109 l 3.700549,0 c 0.569855,0 1.034004,0.24742 1.034004,0.55109 l 0,0.87985 c 0,0.30363 -0.464149,0.55109 -1.034004,0.55109 l -3.700549,0 c -0.569566,0 -1.015837,-0.24746 -1.015837,-0.55109 z m 0,-5.21133 0,-0.87983 c 0,-0.30367 0.446155,-0.54144 1.015837,-0.54144 l 3.700549,0 c 0.569913,0 1.034004,0.23777 1.034004,0.54144 l 0,0.87983 c 0,0.30367 -0.464149,0.55112 -1.034004,0.55112 l -3.700549,0 c -0.569507,0 -1.015837,-0.24745 -1.015837,-0.55112 z m 0,-5.21132 0,-0.87016 c 0,-0.30367 0.446155,-0.5511 1.015837,-0.5511 l 3.700549,0 c 0.569971,0 1.034004,0.24743 1.034004,0.5511 l 0,0.87016 c 0,0.30367 -0.464149,0.55111 -1.034004,0.55111 l -3.700549,0 c -0.569449,0 -1.015837,-0.24744 -1.015837,-0.55111 z m 0,-5.21131 0,-0.87016 c 0,-0.30367 0.446155,-0.55111 1.015837,-0.55111 l 3.700549,0 c 0.569971,0 1.034004,0.24744 1.034004,0.55111 l 0,0.87016 c 0,0.30367 -0.464149,0.5511 -1.034004,0.5511 l -3.700549,0 c -0.569391,0 -1.015837,-0.24743 -1.015837,-0.5511 z m 0,-5.20165 0,-0.87983 c 0,-0.30367 0.446155,-0.5511 1.015837,-0.5511 l 3.700549,0 c 0.569971,0 1.034004,0.24743 1.034004,0.5511 l 0,0.87983 c 0,0.30367 -0.464149,0.54144 -1.034004,0.54144 l -3.700549,0 c -0.569333,0 -1.015837,-0.23777 -1.015837,-0.54144 z m 0,-5.21131 0,-0.87983 c 0,-0.30367 0.446155,-0.55111 1.015837,-0.55111 l 3.700549,0 c 0.569971,0 1.034004,0.24744 1.034004,0.55111 l 0,0.87983 c 0,0.30367 -0.464149,0.5511 -1.034004,0.5511 l -3.700549,0 c -0.569275,0 -1.015837,-0.24743 -1.015837,-0.5511 z"
       id="rect10"
       inkscape:connector-curvature="0" />
  </g>
  <g
     inkscape:groupmode="layer"
     id="layer2"
     inkscape:label="Layer"
     transform="translate(-26.010348,-46.48658)">
    <rect
       style="fill:#000000;fill-opacity:1;stroke:#000000;stroke-width:0.42280209;stroke-miterlimit:4;stroke-opacity:1;stroke-dasharray:none"
       id="rect2989"
       width="49.922459"
       height="39.989426"
       x="37.297585"
       y="47.390766"
       rx="1.021203"
       ry="0.54943931" />
  </g>
</svg>
